<svg xmlns="http://www.w3.org/2000/svg" width="238.435" height="238.435" viewBox="0 0 238.435 238.435">
  <g id="グループ_2" data-name="グループ 2" transform="translate(-178.421 -330.131)">
    <circle id="楕円形_1" data-name="楕円形 1" cx="119.217" cy="119.217" r="119.217" transform="translate(178.421 330.131)" fill="#1a1311"/>
    <g id="グループ_1" data-name="グループ 1">
      <path id="パス_1" data-name="パス 1" d="M252.113,518.976c-.717-.125-1.7-7.684-.778-12.023.211-.98.638-4.653-.039-5.869-.319-3.027.8-9.032.384-11.932-.41-2.843,2.3,1.676,1.978-1.149,1.916-2.2,2.046,2.642,4.308.443,1.175,3.641,2.52,7.481,5.78,9.728,8.254,2.7,18.452.778,27.43.256,2.266-2.2,3.7,2.871,1.7-4,1.161-13.695-.748-27.073-1.656-40.991-11.54-2.527-13.765-.9-25.334.408-1.914,1.391-4.158,1.774-6.069,2.966-.03,3.026-2.277,3.809-1.962,6.836-1.74,1.4-4.322.969-5.543,2.57-.693-.007-.075.355-.414-.253-.159-1.614-.846-4.251-.383-6.527,1.844-9.058.227-24.529,1.568-24.733a66.623,66.623,0,0,1,10.011-.919c11,.619,15.6-.681,25.874-.173,15.708.774,33.009-.014,48.717-.672,6.731-.14-4.434,1.636,1.279-.529.851,1.217-.521.474-.026,2.9.166.608-2.824,6.693-2.482,7.5-.625,11.282,9.906,2.5,9.626,13.994-.2,2.82.127,5.24-1.106,7.647-2.922-1.034-6.21.348-8.424-3.5-2.54-4.661-.813-4.443-4.93-6.5a61.8,61.8,0,0,0-21.041-1.406c-1.044,1-9.208-1.223-10.252-.025-2.281,4.212,2,9.233.413,13.249-.087,9.678,2.753,19.138.413,29.4.863.21,3.326,1.473,4.184,1.683,11.9.914,24.489,1.434,35.4-2.7,4.331-1.772-7.688-9.343-1.49-7.672.7-1.406,1.39-.795,2.093-2.2.673,1.82,3.268.834,3.763,3.459,1.207.012-1.22,1.4-.374,3.024-1.75,2.8-1.8,7.842-1.136,11.077-2.143,7.841,3.049,4.448-2.192,11.252-3.628.573-2.054,2.692-4.989,2.854-6.383.353-3.636-.5-9.346,1.061-.342-.407-2.792,2.378-3.137,2.174-18.456-.374-28.8-.623-47.614.413-3.107-.029-9.636-1.45-12.593-1.326-1.956.083-8.287.784-11.6.2" fill="#fff"/>
      <path id="パス_2" data-name="パス 2" d="M356.158,518.972c-.16.716-10.278,1.772-16.1.886-1.318-.2-6.247-.591-7.867.1-4.053.344-12.115-.717-16-.275-3.806.436,2.222-2.312-1.562-1.968-2.974-1.9,3.514-2.07.541-4.312,4.866-1.208,9.994-2.589,12.968-5.865,3.516-8.282.813-9.767,0-18.74-2.974-2.244,2.97-9.663-6.215-7.591-19.511-1.1-34.033-2.477-53.772-1.383-3.247,11.563-1.353,14.426.539,25.988,1.891,1.9,2.434,4.139,4.051,6.038,4.057,0,5.138,2.242,9.189,1.9,1.892,1.727,1.349,4.316,3.516,5.524,0,.688.475.07-.338.413-2.164.173-5.687.888-8.739.444-12.168-1.762-32.888,0-33.178-1.335-.5-2.236-1.511-7.525-1.354-10.008.693-11-1.106-15.593-.557-25.868.843-15.66-2.383-46.478-2.338-46.451.927.54,13-.773,14.08-1.12,15.132.518,3.233-9.931,18.638-9.759,3.785.173,7.028-.172,10.27,1.036-1.351,2.933.543,6.212-4.594,8.454-6.212,2.588-5.946.857-8.646,5-2.164,6.556-2.7,22.359-1.622,28.916,1.349,1.036-1.081,2.417.54,3.451,5.673,2.244,11.888-1.207,17.3.345,12.971,0,25.939-.518,39.72,1.727.272-.862,1.624.172,1.894-.691,1.081-11.907,1.621-32.369-4.053-43.238-2.428-4.313-12.431,7.772-10.269,1.561-1.892-.691-1.083-1.383-2.97-2.072,2.43-.69,1.078-3.277,4.587-3.8,0-1.206,1.894,1.208,4.058.347,3.783,1.724,10.538,1.724,14.862,1.034,10.544,2.071,4.984-2.475,14.171,2.7.814,3.623,5.128,2.24,5.385,5.174.553,6.38.413,2.4.413,8.488,0,1.448.373,14.043.1,14.388-.269,18.463.765,21.2,2.389,40.011,0,3.1.355,6,.556,8.95.134,1.957,1.155,8.279.414,11.6" fill="#fff"/>
      <path id="パス_3" data-name="パス 3" d="M350.532,432.871c-9.46-7.874-14.514-13.565-20.965-20.655-4.032-8.434-10.928-13.421-15.769-21.731-3.426-4.766-6.849-10.869-11.075-14.487-2.987-2.557-3.393-5.826-6.823-7.17-1.408-1.1-4.434-.246-4.434.976-4.838,10.145-13.081,15.6-19.53,25.256-6.653,10.145-17.142,21.565-22.586,31.955-2.82,2.445-3.833,2.557-8.888,7.324-1.346,1.268-.605,1.343-1.611,1.956,2.62,5.622,13.506,2.688,19.958,3.421,1.857-.606,6.236-.236,7.7-1.274,18.054-1.048,24.9-1.7,44.738-1.516.4.2,11.953.025,12.356.426a12.39,12.39,0,0,1,1.286-.166c5.032.18,10.238-.542,14.959-.158,4.232-.49,9.676.121,12.7-1.466a12.375,12.375,0,0,0-2.017-2.691m-61.886-40.088c.6-2.69,3.829-4.277,4.43-6.968,1.416-3.054,2.622-.121,3.632.98a156.286,156.286,0,0,0,17.938,25.666c-6.451.856-13.1-.367-19.552-.245a159.751,159.751,0,0,0-20.161,1.221c3.63-7.088,8.469-13.811,13.713-20.654" fill="#fff"/>
    </g>
  </g>
</svg>
