<svg xmlns="http://www.w3.org/2000/svg" width="358.01" height="302.272" viewBox="0 0 358.01 302.272">
  <g id="グループ_9" data-name="グループ 9" transform="translate(-36.318 -12.282)">
    <path id="パス_1" data-name="パス 1" d="M371.071,20.5l-6.489,19.468-35.5,29.011-5.726,37.027L201.588,204.493,163.8,214.8l-51.914,15.269L71.04,304.885" fill="none" stroke="#e2ebf2" stroke-linecap="round" stroke-linejoin="round" stroke-width="13"/>
    <path id="パス_2" data-name="パス 2" d="M38.593,191.133l-.382,7.253,85.123-59.167,43.139-12.109L169,129.274l18.842,19.87L218,173.955,247.394,229.3,304.27,241.52l20.613-8.78,25.575-25.575,35.882-18.7-2.672-2.672-38.935,19.086L319.921,228.16l-16.414,7.253-53.059-11.452-27.1-52.3-23.285-24.048,3.821-28.342,1.328-5.789,13.173-3.659,40.844-39.317,17.941-51.532H270.3l-15.65,47.333-38.554,38.935L174.1,115.934l-61.839,22.14-3.084,1.769L39.739,179.681l-.382,6.108" fill="#e5e5e5"/>
    <path id="パス_3" data-name="パス 3" d="M111.883,18.977l36.645,37.409,13.36,8.016,66.037,4.581L305.034,88.45l36.645,10.688,19.086,14.124-6.489,22.14-29.011,27.866" fill="none" stroke="#000" stroke-linecap="round" stroke-linejoin="round" stroke-width="1"/>
    <path id="パス_4" data-name="パス 4" d="M385.576,167.466l-41.607,21.376L203.114,231.213l-42.371-6.489-40.081,11.452L79.437,303.74" fill="none" stroke="#e2ebf2" stroke-linecap="round" stroke-linejoin="round" stroke-width="13"/>
    <path id="パス_5" data-name="パス 5" d="M312.286,305.649l-101.156-59.93-67.564,2.672L87.453,304.5" fill="none" stroke="#e2ebf2" stroke-linecap="round" stroke-linejoin="round" stroke-width="13"/>
    <path id="パス_6" data-name="パス 6" d="M106.158,18.6,151.2,66.311l14.124,53.059,22.521,24.812,35.5,29.774,31.683,60.312h67.564l61.839-45.425" fill="none" stroke="#000" stroke-linecap="round" stroke-linejoin="round" stroke-width="1"/>
    <line id="線_1" data-name="線 1" x1="261.86" y2="274.075" transform="translate(38.975 22.795)" fill="none" stroke="#000" stroke-miterlimit="10" stroke-width="3"/>
    <path id="パス_7" data-name="パス 7" d="M196.625,18.977,92.8,220.907,37.066,252.971" fill="none" stroke="#000" stroke-miterlimit="10" stroke-width="3"/>
    <line id="線_2" data-name="線 2" x1="261.86" y2="274.075" transform="translate(38.975 22.795)" fill="none" stroke="#fff" stroke-miterlimit="10" stroke-width="1" stroke-dasharray="5 5"/>
    <path id="パス_8" data-name="パス 8" d="M196.625,18.977,92.8,220.907,37.066,252.971" fill="none" stroke="#fff" stroke-miterlimit="10" stroke-width="1" stroke-dasharray="5 5"/>
    <path id="パス_9" data-name="パス 9" d="M383.286,86.923l-128.639,102.3,13.36,46.951-27.1,45.043-69.855-6.489-61.839,31.3" fill="none" stroke="#000" stroke-miterlimit="10" stroke-width="3"/>
    <path id="パス_10" data-name="パス 10" d="M383.286,86.923l-128.639,102.3,13.36,46.951-27.1,45.043-69.855-6.489-61.839,31.3" fill="none" stroke="#fff" stroke-miterlimit="10" stroke-width="1" stroke-dasharray="5 5"/>
    <circle id="楕円形_1" data-name="楕円形 1" cx="2.292" cy="2.292" r="2.292" transform="translate(315.964 147.597)"/>
    <g id="グループ_1" data-name="グループ 1">
      <path id="パス_11" data-name="パス 11" d="M173.339,128.531h4.2l1.487,1.938-1.487,2.035h-4.2l-1.775-2.035Z"/>
      <text id="_123" data-name="123" transform="translate(175.297 131.776)" fill="#fff" font-size="3.711" font-family="DINCondensed-Bold, DIN Condensed" font-weight="700"><tspan x="-2.071" y="0">123</tspan></text>
    </g>
    <g id="グループ_2" data-name="グループ 2">
      <path id="パス_12" data-name="パス 12" d="M347.121,137.868h4.2l1.487,1.938-1.487,2.035h-4.2l-1.775-2.035Z"/>
      <text id="_126" data-name="126" transform="translate(349.081 141.114)" fill="#fff" font-size="3.711" font-family="DINCondensed-Bold, DIN Condensed" font-weight="700"><tspan x="-2.071" y="0">126</tspan></text>
    </g>
    <rect id="長方形_1" data-name="長方形 1" width="39.134" height="9.783" transform="translate(333.874 120.275) rotate(-38.452)" fill="#fff" stroke="#000" stroke-miterlimit="10" stroke-width="0.5"/>
    <text id="京阪淀駅" transform="matrix(0.783, -0.622, 0.622, 0.783, 353.357, 113.442)" font-size="5.414" font-family="HiraginoSans-W3, Hiragino Sans" letter-spacing="0.15em"><tspan x="-12.046" y="0">京阪淀駅</tspan></text>
    <rect id="長方形_2" data-name="長方形 2" width="46.222" height="9.68" transform="translate(87.707 239.06) rotate(-46.239)" fill="#fff" stroke="#000" stroke-miterlimit="10" stroke-width="0.5"/>
    <text id="阪急大山崎駅" transform="matrix(0.692, -0.722, 0.722, 0.692, 108.925, 226.743)" font-size="5.357" font-family="HiraginoSans-W3, Hiragino Sans" letter-spacing="0.15em"><tspan x="-18.08" y="0">阪急大山崎駅</tspan></text>
    <rect id="長方形_3" data-name="長方形 3" width="38.904" height="9.68" transform="translate(53.39 237.798) rotate(-29.927)" fill="#fff" stroke="#000" stroke-miterlimit="10" stroke-width="0.5"/>
    <text id="JR山崎駅" transform="translate(73.619 233.962) rotate(-29.927)" font-size="5.357" font-family="Helvetica" letter-spacing="0.15em"><tspan x="-12.916" y="0">JR</tspan><tspan y="0" font-family="HiraginoSans-W3, Hiragino Sans">山崎駅</tspan></text>
    <g id="グループ_3" data-name="グループ 3">
      <path id="パス_13" data-name="パス 13" d="M248.063,67.192h4.2l1.487,1.938-1.487,2.035h-4.2l-1.775-2.035Z"/>
      <text id="_171" data-name="171" transform="translate(250.022 70.437)" fill="#fff" font-size="3.711" font-family="DINCondensed-Bold, DIN Condensed" font-weight="700"><tspan x="-2.071" y="0">171</tspan></text>
    </g>
    <g id="グループ_4" data-name="グループ 4">
      <path id="パス_14" data-name="パス 14" d="M214.174,66.486h4.2l1.487,1.938-1.487,2.035h-4.2L212.4,68.425Z"/>
      <text id="_204" data-name="204" transform="translate(216.133 69.732)" fill="#fff" font-size="3.711" font-family="DINCondensed-Bold, DIN Condensed" font-weight="700"><tspan x="-2.071" y="0">204</tspan></text>
    </g>
    <g id="グループ_5" data-name="グループ 5">
      <path id="パス_15" data-name="パス 15" d="M154.608,68.965h4.2L160.3,70.9l-1.487,2.035h-4.2L152.833,70.9Z"/>
      <text id="_478" data-name="478" transform="translate(156.566 72.211)" fill="#fff" font-size="3.711" font-family="DINCondensed-Bold, DIN Condensed" font-weight="700"><tspan x="-2.071" y="0">478</tspan></text>
    </g>
    <path id="パス_16" data-name="パス 16" d="M172.2,19.741,144.33,69.746l-2.672,32.828.382,22.521" fill="none" stroke="#000" stroke-linecap="round" stroke-linejoin="round" stroke-width="1"/>
    <path id="パス_17" data-name="パス 17" d="M359.238,20.5,321.829,57.149l-4.2,8.016-4.2,28.629L302.361,108.3l-31.3,5.726-29.392-11.07,1.527-20.231" fill="none" stroke="#000" stroke-miterlimit="10" stroke-width="1"/>
    <path id="パス_18" data-name="パス 18" d="M382.141,222.434H351.6L342.06,186.17,310,144.563l-14.505,2.29" fill="none" stroke="#000" stroke-linecap="round" stroke-linejoin="round" stroke-width="1"/>
    <path id="パス_19" data-name="パス 19" d="M382.9,52.187l-66.8,77.871L224.109,203.73,221.437,267.1l11.07,36.645" fill="none" stroke="#000" stroke-miterlimit="10" stroke-width="1"/>
    <text id="大山崎IC" transform="translate(184.404 123.481)" font-size="5" font-family="HiraginoSans-W3, Hiragino Sans" letter-spacing="0.15em"><tspan x="-11.5" y="0">大山崎</tspan><tspan y="0" font-family="Helvetica">IC</tspan></text>
    <text id="淀川河川公園_大山崎地区" data-name="淀川河川公園
大山崎地区" transform="translate(233.409 145.879)" font-size="5" font-family="HiraginoSans-W3, Hiragino Sans" letter-spacing="0.15em"><tspan x="-17.25" y="0">淀川河川公園</tspan><tspan y="0" font-family="Helvetica"></tspan><tspan x="-14" y="7">大山崎地区</tspan></text>
    <text id="京都府立洛西浄化_センター公園_アクアパルコ洛西_" data-name="京都府立洛西浄化
センター公園
（アクアパルコ洛西）" transform="translate(274.562 92.787)" font-size="5" font-family="HiraginoSans-W3, Hiragino Sans" letter-spacing="0.15em"><tspan x="-23" y="0">京都府立洛西浄化</tspan><tspan y="0" font-family="Helvetica"></tspan><tspan x="-17.25" y="6">センター公園</tspan><tspan y="6" font-family="Helvetica"></tspan><tspan x="-28.025" y="12">（アクアパルコ洛西）</tspan></text>
    <text id="久御山IC" transform="translate(332.516 207.844)" font-size="5" font-family="HiraginoSans-W3, Hiragino Sans" letter-spacing="0.15em"><tspan x="-11.5" y="0">久御山</tspan><tspan y="0" font-family="Helvetica">IC</tspan></text>
    <text id="宇治川" transform="translate(146.208 225.662)" font-size="5" font-family="HiraginoSans-W3, Hiragino Sans" letter-spacing="0.15em"><tspan x="-8.25" y="0">宇治川</tspan></text>
    <g id="グループ_6" data-name="グループ 6">
      <path id="パス_20" data-name="パス 20" d="M352.586,82.337h4.2l1.487,1.938-1.487,2.035h-4.2l-1.775-2.035Z"/>
      <text id="_13" data-name="13" transform="translate(354.544 85.582)" fill="#fff" font-size="3.711" font-family="DINCondensed-Bold, DIN Condensed" font-weight="700"><tspan x="-1.38" y="0">13</tspan></text>
    </g>
    <g id="グループ_7" data-name="グループ 7">
      <path id="パス_21" data-name="パス 21" d="M331.954,173.185h4.2l1.487,1.938-1.487,2.035h-4.2l-1.775-2.035Z"/>
      <text id="_15" data-name="15" transform="translate(333.913 176.431)" fill="#fff" font-size="3.711" font-family="DINCondensed-Bold, DIN Condensed" font-weight="700"><tspan x="-1.38" y="0">15</tspan></text>
    </g>
    <g id="グループ_8" data-name="グループ 8">
      <path id="パス_22" data-name="パス 22" d="M315.123,69.618h4.2l1.487,1.938-1.487,2.035h-4.2l-1.775-2.035Z"/>
      <text id="_123-2" data-name="123" transform="translate(317.082 72.864)" fill="#fff" font-size="3.711" font-family="DINCondensed-Bold, DIN Condensed" font-weight="700"><tspan x="-2.071" y="0">123</tspan></text>
    </g>
  </g>
</svg>
